<svg xmlns="http://www.w3.org/2000/svg" width="24" height="25" fill="none"><path fill="#252420" fill-rule="evenodd" d="M12 .5C8.741.5 8.333.514 7.053.572 2.695.772.273 3.19.073 7.552.014 8.833 0 9.241 0 12.5c0 3.259.014 3.668.072 4.948.2 4.358 2.618 6.78 6.98 6.98 1.281.058 1.689.072 4.948.072 3.259 0 3.668-.014 4.948-.072 4.354-.2 6.782-2.618 6.979-6.98.059-1.28.073-1.689.073-4.948 0-3.259-.014-3.667-.072-4.947-.196-4.354-2.617-6.78-6.979-6.98C15.668.514 15.259.5 12 .5Zm0 2.163c3.204 0 3.584.012 4.85.07 3.252.148 4.771 1.691 4.919 4.919.058 1.265.069 1.645.069 4.849 0 3.205-.012 3.584-.069 4.849-.149 3.225-1.664 4.771-4.919 4.919-1.266.058-1.644.07-4.85.07-3.204 0-3.584-.012-4.849-.07-3.26-.149-4.771-1.699-4.919-4.92-.058-1.265-.07-1.644-.07-4.849 0-3.204.013-3.583.07-4.849.149-3.227 1.664-4.771 4.919-4.919 1.266-.057 1.645-.069 4.849-.069ZM5.838 12.5a6.162 6.162 0 1 1 12.324 0 6.162 6.162 0 0 1-12.324 0Zm6.162 4a4 4 0 1 1 0-8 4 4 0 0 1 0 8Zm4.965-10.405a1.44 1.44 0 1 1 2.881.001 1.44 1.44 0 0 1-2.881-.001Z" clip-rule="evenodd"/></svg>